<svg width="15" height="52" viewBox="0 0 15 52" fill="none" xmlns="http://www.w3.org/2000/svg">
<path d="M8.36426 1C8.36426 0.447715 7.91654 0 7.36426 0C6.81197 0 6.36426 0.447715 6.36426 1L7.36426 1L8.36426 1ZM6.65715 51.7071C7.04768 52.0976 7.68084 52.0976 8.07136 51.7071L14.4353 45.3431C14.8259 44.9526 14.8259 44.3195 14.4353 43.9289C14.0448 43.5384 13.4116 43.5384 13.0211 43.9289L7.36426 49.5858L1.7074 43.9289C1.31688 43.5384 0.683714 43.5384 0.29319 43.9289C-0.0973344 44.3195 -0.0973344 44.9526 0.29319 45.3431L6.65715 51.7071ZM7.36426 1L6.36426 1L6.36426 51H7.36426H8.36426L8.36426 1L7.36426 1Z" fill="#2E438A"/>
</svg>
