<svg width="20" height="24" viewBox="0 0 20 24" fill="none" xmlns="http://www.w3.org/2000/svg">
<path d="M19.7075 14.7071L10.7078 23.7068C10.6149 23.7998 10.5046 23.8736 10.3832 23.9239C10.2618 23.9742 10.1317 24.0001 10.0003 24.0001C9.86887 24.0001 9.73874 23.9742 9.61735 23.9239C9.49595 23.8736 9.38567 23.7998 9.2928 23.7068L0.293048 14.7071C0.105412 14.5195 0 14.265 0 13.9996C0 13.7343 0.105412 13.4798 0.293048 13.2921C0.480683 13.1045 0.735171 12.9991 1.00053 12.9991C1.26588 12.9991 1.52037 13.1045 1.70801 13.2921L9.0003 20.5857V0.999972C9.0003 0.734763 9.10566 0.480416 9.29319 0.292885C9.48072 0.105354 9.73507 0 10.0003 0C10.2655 0 10.5198 0.105354 10.7074 0.292885C10.8949 0.480416 11.0002 0.734763 11.0002 0.999972V20.5857L18.2925 13.2921C18.4802 13.1045 18.7347 12.9991 19 12.9991C19.2654 12.9991 19.5199 13.1045 19.7075 13.2921C19.8951 13.4798 20.0006 13.7343 20.0006 13.9996C20.0006 14.265 19.8951 14.5195 19.7075 14.7071Z" fill="black"/>
</svg>
