<svg width="23" height="23" viewBox="0 0 23 23" fill="none" xmlns="http://www.w3.org/2000/svg">
<path d="M5.74984 11.5C5.7545 10.9958 5.95764 10.5137 6.31525 10.1583L10.4265 6.03747C10.6061 5.85898 10.8489 5.75879 11.1021 5.75879C11.3553 5.75879 11.5982 5.85898 11.7778 6.03747C11.8676 6.12656 11.9389 6.23255 11.9875 6.34933C12.0362 6.46611 12.0612 6.59137 12.0612 6.71788C12.0612 6.84439 12.0362 6.96965 11.9875 7.08643C11.9389 7.20322 11.8676 7.30921 11.7778 7.3983L8.62484 10.5416H18.2082C18.4623 10.5416 18.7061 10.6426 18.8858 10.8223C19.0655 11.002 19.1665 11.2458 19.1665 11.5C19.1665 11.7541 19.0655 11.9979 18.8858 12.1776C18.7061 12.3573 18.4623 12.4583 18.2082 12.4583H8.62484L11.7778 15.6112C11.9582 15.7904 12.0601 16.0339 12.061 16.2882C12.0619 16.5426 11.9617 16.7868 11.7825 16.9673C11.6034 17.1477 11.3598 17.2496 11.1055 17.2505C10.8512 17.2514 10.607 17.1512 10.4265 16.9721L6.31525 12.8512C5.95531 12.4934 5.75198 12.0075 5.74984 11.5Z" fill="white"/>
</svg>
