<svg width="132" height="15" viewBox="0 0 132 15" fill="none" xmlns="http://www.w3.org/2000/svg">
<path d="M1 6.36377C0.447715 6.36377 0 6.81148 0 7.36377C0 7.91605 0.447715 8.36377 1 8.36377V6.36377ZM131.707 8.07088C132.098 7.68035 132.098 7.04719 131.707 6.65666L125.343 0.292702C124.953 -0.0978227 124.319 -0.0978227 123.929 0.292702C123.538 0.683226 123.538 1.31639 123.929 1.70692L129.586 7.36377L123.929 13.0206C123.538 13.4111 123.538 14.0443 123.929 14.4348C124.319 14.8254 124.953 14.8254 125.343 14.4348L131.707 8.07088ZM1 7.36377V8.36377H131V7.36377V6.36377H1V7.36377Z" fill="#2E438A"/>
</svg>
