<svg width="6" height="12" viewBox="0 0 6 12" fill="none" xmlns="http://www.w3.org/2000/svg">
<path d="M0.5 1.10141C0.500005 1.02242 0.515659 0.94391 0.545898 0.870941C0.576139 0.798073 0.619975 0.731399 0.675781 0.675629L0.676757 0.675629C0.789482 0.563164 0.942312 0.499847 1.10156 0.499847C1.26082 0.499874 1.41366 0.563125 1.52637 0.675629L4.89355 4.04282C5.08577 4.23501 5.23874 4.46356 5.34277 4.71469C5.44675 4.96575 5.49999 5.23494 5.5 5.50668C5.5 5.7784 5.44672 6.04763 5.34277 6.29868C5.23874 6.54981 5.08577 6.77835 4.89355 6.97055L1.52637 10.3377C1.41363 10.4503 1.26086 10.5135 1.10156 10.5135C0.942093 10.5135 0.788536 10.4505 0.675781 10.3377C0.56302 10.2249 0.499963 10.0715 0.5 9.91196C0.500038 9.75245 0.563942 9.59991 0.676758 9.48715L0.676758 9.48618L4.04297 6.11996C4.20541 5.95737 4.29687 5.73652 4.29687 5.50668C4.29675 5.27702 4.20529 5.05686 4.04297 4.89438L0.676757 1.52719L0.675781 1.52719C0.619977 1.47141 0.576133 1.40476 0.545898 1.33188C0.515654 1.2589 0.5 1.18041 0.5 1.10141Z" fill="#333333" stroke="black"/>
</svg>
