<svg width="6" height="12" viewBox="0 0 6 12" fill="none" xmlns="http://www.w3.org/2000/svg">
<path d="M5.67718 0.322442C5.77952 0.424719 5.86071 0.546161 5.9161 0.679826C5.97149 0.813492 6 0.956762 6 1.10145C6 1.24614 5.97149 1.38941 5.9161 1.52307C5.86071 1.65674 5.77952 1.77818 5.67718 1.88046L2.31078 5.24759C2.24195 5.31644 2.20329 5.4098 2.20329 5.50714C2.20329 5.60448 2.24195 5.69784 2.31078 5.76669L5.67718 9.13309C5.88378 9.3396 5.99989 9.61972 5.99996 9.91184C6.00003 10.204 5.88405 10.4841 5.67755 10.6907C5.47104 10.8973 5.19091 11.0135 4.8988 11.0135C4.60668 11.0136 4.3265 10.8976 4.1199 10.6911L0.752762 7.32397C0.514108 7.08534 0.324797 6.80204 0.195637 6.49024C0.066478 6.17845 2.25955e-07 5.84426 2.40708e-07 5.50677C2.5546e-07 5.16928 0.066478 4.8351 0.195638 4.5233C0.324797 4.21151 0.514108 3.92821 0.752762 3.68958L4.1199 0.322442C4.32643 0.115974 4.6065 -1.24587e-05 4.89854 -1.24459e-05C5.19057 -1.24331e-05 5.47065 0.115974 5.67718 0.322442Z" fill="#333333"/>
</svg>
