<svg width="23" height="23" viewBox="0 0 23 23" fill="none" xmlns="http://www.w3.org/2000/svg">
<path d="M17.2502 11.5C17.2455 10.9958 17.0424 10.5137 16.6847 10.1583L12.5735 6.03747C12.3939 5.85898 12.1511 5.75879 11.8979 5.75879C11.6447 5.75879 11.4018 5.85898 11.2222 6.03747C11.1324 6.12656 11.0611 6.23255 11.0125 6.34933C10.9638 6.46611 10.9388 6.59137 10.9388 6.71788C10.9388 6.84439 10.9638 6.96965 11.0125 7.08643C11.0611 7.20322 11.1324 7.30921 11.2222 7.3983L14.3752 10.5416H4.79183C4.53766 10.5416 4.29391 10.6426 4.11419 10.8223C3.93446 11.002 3.8335 11.2458 3.8335 11.5C3.8335 11.7541 3.93446 11.9979 4.11419 12.1776C4.29391 12.3573 4.53766 12.4583 4.79183 12.4583H14.3752L11.2222 15.6112C11.0418 15.7904 10.9399 16.0339 10.939 16.2882C10.9381 16.5426 11.0383 16.7868 11.2175 16.9673C11.3966 17.1477 11.6402 17.2496 11.8945 17.2505C12.1488 17.2514 12.393 17.1512 12.5735 16.9721L16.6847 12.8512C17.0447 12.4934 17.248 12.0075 17.2502 11.5Z" fill="#333333"/>
</svg>
