<svg width="13" height="7" viewBox="0 0 13 7" fill="none" xmlns="http://www.w3.org/2000/svg">
<path d="M12.6194 0.376625C12.4987 0.257225 12.3553 0.162508 12.1975 0.0978848C12.0398 0.0332618 11.8707 0 11.6999 0C11.5291 0 11.36 0.0332618 11.2022 0.0978848C11.0444 0.162508 10.9011 0.257225 10.7804 0.376625L6.8059 4.30409C6.72464 4.38439 6.61445 4.42949 6.49954 4.42949C6.38464 4.42949 6.27444 4.38439 6.19318 4.30409L2.2196 0.376625C1.97584 0.135585 1.64519 0.000125248 1.30039 4.493e-05C0.955586 -3.53884e-05 0.624872 0.135271 0.381002 0.376197C0.137132 0.617123 8.13028e-05 0.943935 3.61619e-08 1.28474C-8.12305e-05 1.62554 0.136813 1.95241 0.380569 2.19345L4.35502 6.12178C4.63669 6.40021 4.97109 6.62107 5.33912 6.77176C5.70716 6.92244 6.10162 7 6.49998 7C6.89834 7 7.2928 6.92244 7.66083 6.77176C8.02886 6.62107 8.36326 6.40021 8.64493 6.12178L12.6194 2.19345C12.8631 1.9525 13 1.62575 13 1.28504C13 0.944334 12.8631 0.617577 12.6194 0.376625Z" fill="white"/>
</svg>
