<svg width="34" height="34" viewBox="0 0 34 34" fill="none" xmlns="http://www.w3.org/2000/svg">
<g clip-path="url(#clip0_32390_707)">
<g clip-path="url(#clip1_32390_707)">
<path d="M16.9402 34.0114L15.9527 33.1649C14.5913 32.025 2.7041 21.7588 2.7041 14.2493C2.7041 6.38692 9.07784 0.0131836 16.9402 0.0131836C24.8026 0.0131836 31.1763 6.38692 31.1763 14.2493C31.1763 21.7588 19.2891 32.025 17.9334 33.1706L16.9402 34.0114ZM16.9402 3.09144C10.7808 3.09842 5.7894 8.08984 5.78243 14.2492C5.78243 18.9669 13.0959 26.5032 16.9402 29.9525C20.7846 26.5018 28.098 18.9611 28.098 14.2492C28.091 8.08984 23.0997 3.09848 16.9402 3.09144Z" fill="#F39C12"/>
<path d="M16.9399 19.8926C13.8234 19.8926 11.2969 17.3661 11.2969 14.2495C11.2969 11.1329 13.8234 8.60645 16.9399 8.60645C20.0565 8.60645 22.583 11.1329 22.583 14.2495C22.583 17.3661 20.0566 19.8926 16.9399 19.8926ZM16.9399 11.4279C15.3817 11.4279 14.1184 12.6912 14.1184 14.2494C14.1184 15.8077 15.3817 17.071 16.9399 17.071C18.4982 17.071 19.7615 15.8077 19.7615 14.2494C19.7615 12.6912 18.4983 11.4279 16.9399 11.4279Z" fill="#F39C12"/>
</g>
</g>
<defs>
<clipPath id="clip0_32390_707">
<rect width="34" height="34" rx="17" fill="white"/>
</clipPath>
<clipPath id="clip1_32390_707">
<rect width="34" height="34" fill="white"/>
</clipPath>
</defs>
</svg>
