<svg width="18" height="18" viewBox="0 0 18 18" fill="none" xmlns="http://www.w3.org/2000/svg">
<g clip-path="url(#clip0_32390_6711)">
<path d="M13.1247 18C7.01292 18.1717 -3.80658 7.34025 1.39617 1.4535C1.41492 1.4355 2.21517 0.738 2.21517 0.738C2.71742 0.273708 3.37781 0.0184042 4.06177 0.0241177C4.74572 0.0298313 5.40175 0.296132 5.89617 0.76875L7.51017 2.50725C7.9856 3.00411 8.24852 3.66678 8.24306 4.35444C8.2376 5.04209 7.96418 5.70051 7.48092 6.18975L7.18992 6.48525C8.05657 8.40442 9.58988 9.94412 11.5054 10.8188L11.8137 10.5187C12.3136 10.0426 12.9776 9.77696 13.6681 9.77696C14.3585 9.77696 15.0225 10.0426 15.5224 10.5187L17.2002 12.075C17.6971 12.5605 17.9824 13.2225 17.9939 13.9171C18.0054 14.6117 17.7423 15.2828 17.2617 15.7845C17.2617 15.7845 16.5642 16.584 16.5462 16.6027C16.0967 17.0505 15.5629 17.4046 14.9755 17.6445C14.3882 17.8843 13.7591 18.0052 13.1247 18ZM2.96217 3.075C-0.682077 7.5885 10.9827 18.5798 14.9284 15.0375C14.9284 15.0375 15.6214 14.2432 15.6402 14.2252C15.7105 14.1549 15.75 14.0596 15.75 13.9601C15.75 13.8607 15.7105 13.7653 15.6402 13.695L13.9617 12.1395C13.7367 11.952 13.6099 11.9497 13.4014 12.1095L12.5494 12.948C12.3957 13.0992 12.2019 13.203 11.9908 13.2472C11.7798 13.2913 11.5606 13.2739 11.3592 13.197C9.86264 12.6401 8.50334 11.768 7.3734 10.6397C6.24345 9.51146 5.3693 8.15345 4.81017 6.65775C4.72879 6.45472 4.70837 6.23237 4.75139 6.01791C4.79442 5.80345 4.89903 5.60618 5.05242 5.45025L5.88342 4.60575C5.92127 4.57213 5.95168 4.53099 5.97271 4.48495C5.99374 4.43891 6.00494 4.38898 6.00557 4.33837C6.00621 4.28775 5.99627 4.23756 5.9764 4.19101C5.95653 4.14445 5.92716 4.10256 5.89017 4.068L4.27467 2.3295C4.20319 2.26976 4.11158 2.2396 4.01859 2.24517C3.9256 2.25075 3.83825 2.29165 3.77442 2.3595C3.75642 2.37825 2.96217 3.075 2.96217 3.075ZM17.9997 7.125C17.9975 5.236 17.2461 3.425 15.9104 2.08928C14.5747 0.753552 12.7637 0.00218347 10.8747 0C10.5763 0 10.2902 0.118526 10.0792 0.329505C9.8682 0.540483 9.74967 0.826631 9.74967 1.125C9.74967 1.42337 9.8682 1.70952 10.0792 1.9205C10.2902 2.13147 10.5763 2.25 10.8747 2.25C12.1671 2.25159 13.4062 2.76571 14.3201 3.67961C15.234 4.5935 15.7481 5.83256 15.7497 7.125C15.7497 7.42337 15.8682 7.70952 16.0792 7.9205C16.2902 8.13147 16.5763 8.25 16.8747 8.25C17.173 8.25 17.4592 8.13147 17.6702 7.9205C17.8811 7.70952 17.9997 7.42337 17.9997 7.125ZM14.2497 7.125C14.2487 6.2302 13.8928 5.37233 13.2601 4.73961C12.6273 4.10689 11.7695 3.75099 10.8747 3.75C10.5763 3.75 10.2902 3.86853 10.0792 4.0795C9.8682 4.29048 9.74967 4.57663 9.74967 4.875C9.74967 5.17337 9.8682 5.45952 10.0792 5.6705C10.2902 5.88147 10.5763 6 10.8747 6C11.173 6 11.4592 6.11853 11.6702 6.3295C11.8811 6.54048 11.9997 6.82663 11.9997 7.125C11.9997 7.42337 12.1182 7.70952 12.3292 7.9205C12.5402 8.13147 12.8263 8.25 13.1247 8.25C13.423 8.25 13.7092 8.13147 13.9202 7.9205C14.1311 7.70952 14.2497 7.42337 14.2497 7.125Z" fill="white"/>
</g>
<defs>
<clipPath id="clip0_32390_6711">
<rect width="18" height="18" fill="white"/>
</clipPath>
</defs>
</svg>
